{
  "source": "C:\\Users\\Peter\\Desktop\\stuff\\MIUN\\quantitative_research\\video_compression\\videos\\HEVC_CLASS_B\\BasketballDrive_1920x1080_50.y4m",
  "output": "C:\\Users\\Peter\\Desktop\\stuff\\MIUN\\quantitative_research\\video_compression\\compressed_videos\\HEVC_CLASS_B\\h264\\1.5\\BasketballDrive_1920x1080_50_h264.mp4",
  "codec": "h264",
  "ok": "Input #0, yuv4mpegpipe, from 'C:\\Users\\Peter\\Desktop\\stuff\\MIUN\\quantitative_research\\video_compression\\videos\\HEVC_CLASS_B\\BasketballDrive_1920x1080_50.y4m':\n  Duration: 00:00:10.00, start: 0.000000, bitrate: 1244162 kb/s\n  Stream #0:0: Video: rawvideo (I420 / 0x30323449), yuv420p(progressive), 1920x1080, 50 fps, 50 tbr, 50 tbn\n[out#0/mp4 @ 00000194f7349a40] Codec AVOption b:a (set bitrate (in bits/s)) has not been used for any stream. The most likely reason is either wrong type (e.g. a video option with no video streams) or that it is a private option of some decoder which was not actually used for any stream.\nStream mapping:\n  Stream #0:0 -> #0:0 (rawvideo (native) -> h264 (libx264))\nPress [q] to stop, [?] for help\n[libx264 @ 00000194f734cac0] using cpu capabilities: MMX2 SSE2Fast SSSE3 SSE4.2 AVX FMA3 BMI2 AVX2\n[libx264 @ 00000194f734cac0] profile High, level 5.0, 4:2:0, 8-bit\n[libx264 @ 00000194f734cac0] 264 - core 165 r3222 b35605a - H.264/MPEG-4 AVC codec - Copyleft 2003-2025 - http://www.videolan.org/x264.html - options: cabac=1 ref=5 deblock=1:0:0 analyse=0x3:0x113 me=hex subme=8 psy=1 psy_rd=1.00:0.00 mixed_ref=1 me_range=16 chroma_me=1 trellis=2 8x8dct=1 cqm=0 deadzone=21,11 fast_pskip=1 chroma_qp_offset=-2 threads=18 lookahead_threads=3 sliced_threads=0 nr=0 decimate=1 interlaced=0 bluray_compat=0 constrained_intra=0 bframes=3 b_pyramid=2 b_adapt=1 b_bias=0 direct=3 weightb=1 open_gop=0 weightp=2 keyint=250 keyint_min=25 scenecut=40 intra_refresh=0 rc_lookahead=50 rc=cbr mbtree=1 bitrate=1500 ratetol=1.0 qcomp=0.60 qpmin=0 qpmax=69 qpstep=4 vbv_maxrate=1500 vbv_bufsize=1500 nal_hrd=none filler=0 ip_ratio=1.40 aq=1:1.00\nOutput #0, mp4, to 'C:\\Users\\Peter\\Desktop\\stuff\\MIUN\\quantitative_research\\video_compression\\compressed_videos\\HEVC_CLASS_B\\h264\\1.5\\BasketballDrive_1920x1080_50_h264.mp4':\n  Metadata:\n    encoder         : Lavf62.3.100\n  Stream #0:0: Video: h264 (avc1 / 0x31637661), yuv420p(tv, progressive), 1920x1080, q=2-31, 1500 kb/s, 50 fps, 12800 tbn\n    Metadata:\n      encoder         : Lavc62.11.100 libx264\n    Side data:\n      cpb: bitrate max/min/avg: 1500000/0/1500000 buffer size: 1500000 vbv_delay: N/A\nframe=    0 fps=0.0 q=0.0 size=       0KiB time=N/A bitrate=N/A speed=N/A elapsed=0:00:00.53    \nframe=    0 fps=0.0 q=0.0 size=       0KiB time=N/A bitrate=N/A speed=N/A elapsed=0:00:01.34    \nframe=    0 fps=0.0 q=0.0 size=       0KiB time=N/A bitrate=N/A speed=N/A elapsed=0:00:01.87    \nframe=   16 fps=6.4 q=48.0 size=       0KiB time=00:00:00.20 bitrate=   1.9kbits/s speed=0.0805x elapsed=0:00:02.48    \nframe=   32 fps= 10 q=47.0 size=       0KiB time=00:00:00.60 bitrate=   0.6kbits/s speed=0.189x elapsed=0:00:03.17    \nframe=   60 fps= 16 q=47.0 size=       0KiB time=00:00:01.00 bitrate=   0.4kbits/s speed=0.26x elapsed=0:00:03.83    \nframe=   76 fps= 16 q=47.0 size=     256KiB time=00:00:01.48 bitrate=1417.3kbits/s speed=0.319x elapsed=0:00:04.63    \nframe=   86 fps= 17 q=47.0 size=     256KiB time=00:00:01.68 bitrate=1248.5kbits/s speed=0.324x elapsed=0:00:05.17    \nframe=  100 fps= 17 q=47.0 size=     256KiB time=00:00:01.80 bitrate=1165.3kbits/s speed=0.313x elapsed=0:00:05.75    \nframe=  112 fps= 17 q=48.0 size=     256KiB time=00:00:02.20 bitrate= 953.4kbits/s speed=0.343x elapsed=0:00:06.42    \nframe=  124 fps= 18 q=48.0 size=     256KiB time=00:00:02.44 bitrate= 859.6kbits/s speed=0.348x elapsed=0:00:07.01    \nframe=  145 fps= 19 q=48.0 size=     512KiB time=00:00:02.76 bitrate=1519.8kbits/s speed=0.359x elapsed=0:00:07.67    \nframe=  160 fps= 19 q=47.0 size=     512KiB time=00:00:03.16 bitrate=1327.4kbits/s speed=0.38x elapsed=0:00:08.31    \nframe=  174 fps= 20 q=46.0 size=     512KiB time=00:00:03.44 bitrate=1219.4kbits/s speed=0.388x elapsed=0:00:08.85    \nframe=  174 fps= 19 q=46.0 size=     512KiB time=00:00:03.44 bitrate=1219.4kbits/s speed=0.367x elapsed=0:00:09.38    \nframe=  192 fps= 19 q=46.0 size=     512KiB time=00:00:03.80 bitrate=1103.9kbits/s speed=0.381x elapsed=0:00:09.96    \nframe=  206 fps= 20 q=45.0 size=     512KiB time=00:00:04.08 bitrate=1028.1kbits/s speed=0.387x elapsed=0:00:10.53    \nframe=  222 fps= 20 q=46.0 size=     768KiB time=00:00:04.40 bitrate=1430.0kbits/s speed=0.394x elapsed=0:00:11.17    \nframe=  233 fps= 20 q=46.0 size=     768KiB time=00:00:04.60 bitrate=1367.8kbits/s speed=0.392x elapsed=0:00:11.72    \nframe=  234 fps= 19 q=43.0 size=     768KiB time=00:00:04.64 bitrate=1356.0kbits/s speed=0.376x elapsed=0:00:12.33    \nframe=  250 fps= 19 q=46.0 size=     768KiB time=00:00:04.96 bitrate=1268.5kbits/s speed=0.385x elapsed=0:00:12.88    \nframe=  270 fps= 20 q=46.0 size=     768KiB time=00:00:05.36 bitrate=1173.9kbits/s speed=0.397x elapsed=0:00:13.51    \nframe=  282 fps= 20 q=46.0 size=     768KiB time=00:00:05.60 bitrate=1123.5kbits/s speed=0.397x elapsed=0:00:14.11    \nframe=  294 fps= 20 q=47.0 size=    1024KiB time=00:00:05.84 bitrate=1436.5kbits/s speed=0.398x elapsed=0:00:14.67    \nframe=  306 fps= 20 q=46.0 size=    1024KiB time=00:00:06.08 bitrate=1379.8kbits/s speed=0.399x elapsed=0:00:15.23    \nframe=  308 fps= 20 q=45.0 size=    1024KiB time=00:00:06.12 bitrate=1370.8kbits/s speed=0.388x elapsed=0:00:15.78    \nframe=  328 fps= 20 q=45.0 size=    1024KiB time=00:00:06.52 bitrate=1286.7kbits/s speed=0.396x elapsed=0:00:16.45    \nframe=  346 fps= 20 q=46.0 size=    1024KiB time=00:00:06.88 bitrate=1219.3kbits/s speed=0.405x elapsed=0:00:16.99    \nframe=  358 fps= 20 q=46.0 size=    1280KiB time=00:00:07.06 bitrate=1485.3kbits/s speed= 0.4x elapsed=0:00:17.66    \nframe=  370 fps= 20 q=46.0 size=    1280KiB time=00:00:07.36 bitrate=1424.7kbits/s speed=0.404x elapsed=0:00:18.21    \nframe=  386 fps= 21 q=45.0 size=    1280KiB time=00:00:07.68 bitrate=1365.4kbits/s speed=0.409x elapsed=0:00:18.77    \nframe=  404 fps= 21 q=45.0 size=    1280KiB time=00:00:08.04 bitrate=1304.2kbits/s speed=0.415x elapsed=0:00:19.36    \nframe=  414 fps= 21 q=46.0 size=    1280KiB time=00:00:08.24 bitrate=1272.6kbits/s speed=0.413x elapsed=0:00:19.92    \nframe=  430 fps= 21 q=46.0 size=    1280KiB time=00:00:08.48 bitrate=1236.6kbits/s speed=0.411x elapsed=0:00:20.63    \nframe=  443 fps= 21 q=46.0 size=    1536KiB time=00:00:08.82 bitrate=1426.7kbits/s speed=0.415x elapsed=0:00:21.25    \nframe=  452 fps= 21 q=46.0 size=    1536KiB time=00:00:09.00 bitrate=1398.1kbits/s speed=0.413x elapsed=0:00:21.76    \nframe=  463 fps= 21 q=47.0 size=    1536KiB time=00:00:09.22 bitrate=1364.8kbits/s speed=0.414x elapsed=0:00:22.28    \nframe=  471 fps= 21 q=45.0 size=    1536KiB time=00:00:09.38 bitrate=1341.5kbits/s speed=0.411x elapsed=0:00:22.80    \nframe=  494 fps= 21 q=-1.0 size=    1536KiB time=00:00:09.84 bitrate=1278.8kbits/s speed=0.422x elapsed=0:00:23.31    \n[mp4 @ 00000194f7349b40] Starting second pass: moving the moov atom to the beginning of the file\n[out#0/mp4 @ 00000194f7349a40] video:1790KiB audio:0KiB subtitle:0KiB other streams:0KiB global headers:0KiB muxing overhead: 0.374958%\nframe=  500 fps= 21 q=-1.0 Lsize=    1796KiB time=00:00:09.96 bitrate=1477.4kbits/s speed=0.422x elapsed=0:00:23.59    \n[libx264 @ 00000194f734cac0] frame I:2     Avg QP:41.12  size: 17550\n[libx264 @ 00000194f734cac0] frame P:126   Avg QP:44.90  size:  6469\n[libx264 @ 00000194f734cac0] frame B:372   Avg QP:47.62  size:  2639\n[libx264 @ 00000194f734cac0] consecutive B-frames:  0.8%  0.0%  0.0% 99.2%\n[libx264 @ 00000194f734cac0] mb I  I16..4: 56.2% 42.5%  1.2%\n[libx264 @ 00000194f734cac0] mb P  I16..4:  6.6%  3.4%  0.1%  P16..4: 21.6%  1.0%  1.0%  0.0%  0.0%    skip:66.2%\n[libx264 @ 00000194f734cac0] mb B  I16..4:  0.1%  0.1%  0.0%  B16..8: 28.3%  0.4%  0.0%  direct: 0.4%  skip:70.7%  L0:32.7% L1:67.0% BI: 0.2%\n[libx264 @ 00000194f734cac0] 8x8 transform intra:35.7% inter:93.4%\n[libx264 @ 00000194f734cac0] direct mvs  spatial:97.3% temporal:2.7%\n[libx264 @ 00000194f734cac0] coded y,uvDC,uvAC intra: 8.4% 32.5% 8.6% inter: 0.5% 2.8% 0.1%\n[libx264 @ 00000194f734cac0] i16 v,h,dc,p: 38% 28%  6% 29%\n[libx264 @ 00000194f734cac0] i8 v,h,dc,ddl,ddr,vr,hd,vl,hu: 11%  7% 29%  8% 11% 11%  9%  8%  6%\n[libx264 @ 00000194f734cac0] i4 v,h,dc,ddl,ddr,vr,hd,vl,hu: 14% 15% 15%  7% 12% 14%  8%  6%  7%\n[libx264 @ 00000194f734cac0] i8c dc,h,v,p: 65% 17% 12%  6%\n[libx264 @ 00000194f734cac0] Weighted P-Frames: Y:0.0% UV:0.0%\n[libx264 @ 00000194f734cac0] ref P L0: 58.9%  5.9% 21.3%  6.0%  7.8%\n[libx264 @ 00000194f734cac0] ref B L0: 86.5%  9.9%  2.7%  0.9%\n[libx264 @ 00000194f734cac0] ref B L1: 96.2%  3.8%\n[libx264 @ 00000194f734cac0] kb/s:1465.37\n",
  "seconds": 24.398337602615356,
  "probe_out": {}
}